<svg xmlns="http://www.w3.org/2000/svg" style="display:none" aria-hidden="true">
  <defs>
  <symbol id="icon-max-channel" viewBox="0 0 24 24" fill="none" stroke="currentColor" stroke-width="2" stroke-linecap="round" stroke-linejoin="round">
    <path d="M4 10v4l13 6V4z"></path>
    <path d="M17 9a3 3 0 0 1 0 6"></path>
    <path d="M7 14v3a2 2 0 0 0 4 0v-2"></path>
  </symbol>
  <symbol id="icon-max-support-bot" viewBox="0 0 24 24" fill="none" stroke="currentColor" stroke-width="2" stroke-linecap="round" stroke-linejoin="round">
    <circle cx="12" cy="12" r="9"></circle>
    <circle cx="12" cy="12" r="3.5"></circle>
    <path d="M9.5 9.5L5 5"></path>
    <path d="M14.5 9.5L19 5"></path>
    <path d="M9.5 14.5L5 19"></path>
    <path d="M14.5 14.5L19 19"></path>
  </symbol>
  <symbol id="icon-max-product-bot" viewBox="0 0 24 24" fill="none" stroke="currentColor" stroke-width="2" stroke-linecap="round" stroke-linejoin="round">
    <path d="M8 4.5V3"></path>
    <path d="M16 4.5V3"></path>
    <rect x="4" y="4.5" width="16" height="15" rx="3.5"></rect>
    <path d="M12 9c0 1.7.9 2.6 2.6 2.6-1.7 0-2.6.9-2.6 2.6 0-1.7-.9-2.6-2.6-2.6 1.7 0 2.6-.9 2.6-2.6z"></path>
    <path d="M9 19.5v1.5"></path>
    <path d="M15 19.5v1.5"></path>
  </symbol>
  <symbol id="icon-max-community-group" viewBox="0 0 24 24" fill="none" stroke="currentColor" stroke-width="2" stroke-linecap="round" stroke-linejoin="round">
    <path d="M3 6a2 2 0 0 1 2-2h8a2 2 0 0 1 2 2v4a2 2 0 0 1-2 2H8l-3 2.5V12a2 2 0 0 1-2-2z"></path>
    <path d="M9 14v1a2 2 0 0 0 2 2h8l3 2.5V17a2 2 0 0 0 2-2v-3a2 2 0 0 0-2-2h-3"></path>
  </symbol>
  <symbol id="icon-niche-bakery" viewBox="0 0 24 24" fill="none" stroke="currentColor" stroke-width="2" stroke-linecap="round" stroke-linejoin="round">
    <path d="M3.5 17c0-5.5 17-5.5 17 0z"></path>
    <path d="M3.5 17h17"></path>
    <path d="M8 13V9.5"></path>
    <path d="M12 12V8.5"></path>
    <path d="M16 13V9.5"></path>
  </symbol>
  <symbol id="icon-niche-fitness" viewBox="0 0 24 24" fill="none" stroke="currentColor" stroke-width="2" stroke-linecap="round" stroke-linejoin="round">
    <path d="M3 12h18"></path>
    <path d="M5 8.5v7"></path>
    <path d="M7.5 6.5v11"></path>
    <path d="M16.5 6.5v11"></path>
    <path d="M19 8.5v7"></path>
  </symbol>
  <symbol id="icon-niche-travel" viewBox="0 0 24 24" fill="none" stroke="currentColor" stroke-width="2" stroke-linecap="round" stroke-linejoin="round">
    <rect x="3.5" y="7.5" width="17" height="12.5" rx="2"></rect>
    <path d="M9 7.5V5a1 1 0 0 1 1-1h4a1 1 0 0 1 1 1v2.5"></path>
    <path d="M12 11v6"></path>
    <path d="M3.5 12h17"></path>
  </symbol>
  <symbol id="icon-niche-insurance" viewBox="0 0 24 24" fill="none" stroke="currentColor" stroke-width="2" stroke-linecap="round" stroke-linejoin="round">
    <path d="M12 3.2 4.5 6v6c0 4.5 3.2 7.4 7.5 8.5 4.3-1.1 7.5-4 7.5-8.5V6z"></path>
    <path d="M12 9v6"></path>
    <path d="M9 12h6"></path>
  </symbol>
  <symbol id="icon-niche-services" viewBox="0 0 24 24" fill="none" stroke="currentColor" stroke-width="2" stroke-linecap="round" stroke-linejoin="round">
    <circle cx="6" cy="6.5" r="2.5"></circle>
    <circle cx="6" cy="17.5" r="2.5"></circle>
    <path d="M8.2 8L20 16.5"></path>
    <path d="M8.2 16L20 7.5"></path>
    <path d="M11.5 12h2"></path>
  </symbol>
  </defs>
</svg>