<svg xmlns="http://www.w3.org/2000/svg" style="display:none" aria-hidden="true">
  <defs>
  <symbol id="icon-channel" viewBox="0 0 24 24" fill="none" stroke="currentColor" stroke-width="2" stroke-linecap="round" stroke-linejoin="round">
    <circle cx="12" cy="12" r="1.5" fill="currentColor" stroke="none"></circle>
    <path d="M8.5 8.5C7 10 7 14 8.5 15.5"></path>
    <path d="M15.5 8.5C17 10 17 14 15.5 15.5"></path>
    <path d="M5 5C1.7 8.3 1.7 15.7 5 19"></path>
    <path d="M19 5C22.3 8.3 22.3 15.7 19 19"></path>
  </symbol>
  <symbol id="icon-bot-support" viewBox="0 0 24 24" fill="none" stroke="currentColor" stroke-width="2" stroke-linecap="round" stroke-linejoin="round">
    <rect x="4" y="7" width="16" height="12" rx="3.5"></rect>
    <path d="M12 7V4"></path>
    <circle cx="12" cy="3" r="1" fill="currentColor" stroke="none"></circle>
    <circle cx="9" cy="12.5" r="1" fill="currentColor" stroke="none"></circle>
    <circle cx="15" cy="12.5" r="1" fill="currentColor" stroke="none"></circle>
    <path d="M9.5 16h5"></path>
  </symbol>
  <symbol id="icon-community" viewBox="0 0 24 24" fill="none" stroke="currentColor" stroke-width="2" stroke-linecap="round" stroke-linejoin="round">
    <circle cx="9" cy="9" r="3.2"></circle>
    <circle cx="17" cy="10.5" r="2.4"></circle>
    <path d="M3.5 19.5c.6-3.1 2.9-4.8 5.5-4.8s4.9 1.7 5.5 4.8"></path>
    <path d="M15.5 16c1-1 2.3-1.5 3.5-1.2 1.4.3 2.4 1.3 2.8 3"></path>
  </symbol>
  <symbol id="icon-play" viewBox="0 0 24 24" fill="none" stroke="currentColor" stroke-width="2" stroke-linecap="round" stroke-linejoin="round">
    <circle cx="12" cy="12" r="9"></circle>
    <path d="M10.2 8.7v6.6c0 .55.6.88 1.07.6l5.5-3.3a.7.7 0 0 0 0-1.2l-5.5-3.3a.7.7 0 0 0-1.07.6Z"></path>
  </symbol>
  <symbol id="icon-search" viewBox="0 0 24 24" fill="none" stroke="currentColor" stroke-width="2" stroke-linecap="round" stroke-linejoin="round">
    <circle cx="10.5" cy="10.5" r="6.5"></circle>
    <path d="M15.5 15.5l4.5 4.5"></path>
  </symbol>
  <symbol id="icon-book-help" viewBox="0 0 24 24" fill="none" stroke="currentColor" stroke-width="2" stroke-linecap="round" stroke-linejoin="round">
    <path d="M4 5.5C4 4.7 4.7 4 5.5 4H10c1.1 0 2 .9 2 2v14c0-1.1-.9-2-2-2H5.5C4.7 18 4 17.3 4 16.5Z"></path>
    <path d="M20 5.5C20 4.7 19.3 4 18.5 4H14c-1.1 0-2 .9-2 2v14c0-1.1.9-2 2-2h4.5c.8 0 1.5-.7 1.5-1.5Z"></path>
    <path d="M14.6 8.4c0-.66.6-1.4 1.4-1.4s1.4.74 1.4 1.4c0 .7-1.4 1.1-1.4 2"></path>
    <circle cx="16" cy="13" r="0.5" fill="currentColor" stroke="none"></circle>
  </symbol>
  <symbol id="icon-steps" viewBox="0 0 24 24" fill="none" stroke="currentColor" stroke-width="2" stroke-linecap="round" stroke-linejoin="round">
    <path d="M3.5 20H8v-4.5h4.5V11H17V6.5h3.5"></path>
  </symbol>
  <symbol id="icon-spark-ai" viewBox="0 0 24 24" fill="none" stroke="currentColor" stroke-width="2" stroke-linecap="round" stroke-linejoin="round">
    <path d="M12 3.5c0 3.6 1.9 5.5 5.5 5.5-3.6 0-5.5 1.9-5.5 5.5 0-3.6-1.9-5.5-5.5-5.5 3.6 0 5.5-1.9 5.5-5.5Z"></path>
    <path d="M18 14.5c0 2 1 3 3 3-2 0-3 1-3 3 0-2-1-3-3-3 2 0 3-1 3-3Z"></path>
  </symbol>
  <symbol id="icon-calendar" viewBox="0 0 24 24" fill="none" stroke="currentColor" stroke-width="2" stroke-linecap="round" stroke-linejoin="round">
    <rect x="3.5" y="5.5" width="17" height="15" rx="2.5"></rect>
    <path d="M8 3.5V7"></path>
    <path d="M16 3.5V7"></path>
    <path d="M3.5 10.5h17"></path>
    <circle cx="12" cy="15" r="1" fill="currentColor" stroke="none"></circle>
  </symbol>
  <symbol id="icon-kanban" viewBox="0 0 24 24" fill="none" stroke="currentColor" stroke-width="2" stroke-linecap="round" stroke-linejoin="round">
    <rect x="3.5" y="4.5" width="17" height="15" rx="2"></rect>
    <path d="M8 8.5v6"></path>
    <path d="M13 8.5v9"></path>
    <path d="M18 8.5v3.5"></path>
  </symbol>
  <symbol id="icon-bell-notification" viewBox="0 0 24 24" fill="none" stroke="currentColor" stroke-width="2" stroke-linecap="round" stroke-linejoin="round">
    <path d="M6 16c0-1 .6-1.5.6-3v-2.4a5.4 5.4 0 0 1 10.8 0V13c0 1.5.6 2 .6 3Z"></path>
    <path d="M10 19a2 2 0 0 0 4 0"></path>
    <circle cx="18" cy="6" r="2.2" fill="currentColor" stroke="none"></circle>
  </symbol>
  <symbol id="icon-shield-legal" viewBox="0 0 24 24" fill="none" stroke="currentColor" stroke-width="2" stroke-linecap="round" stroke-linejoin="round">
    <path d="M12 3.2 4.5 6v6c0 4.5 3.2 7.4 7.5 8.5 4.3-1.1 7.5-4 7.5-8.5V6Z"></path>
    <path d="M8.5 12 11 14.5 15.5 10"></path>
  </symbol>
  <symbol id="icon-tag-ord" viewBox="0 0 24 24" fill="none" stroke="currentColor" stroke-width="2" stroke-linecap="round" stroke-linejoin="round">
    <path d="M3.7 12.3 11.3 4.7c.4-.4.9-.6 1.4-.6H19c.55 0 1 .45 1 1v6.3c0 .5-.2 1-.6 1.4l-7.6 7.6a2 2 0 0 1-2.8 0l-5.3-5.3a2 2 0 0 1 0-2.8Z"></path>
    <circle cx="15.5" cy="8.5" r="1.4" fill="currentColor" stroke="none"></circle>
  </symbol>
  <symbol id="icon-wallet-pricing" viewBox="0 0 24 24" fill="none" stroke="currentColor" stroke-width="2" stroke-linecap="round" stroke-linejoin="round">
    <path d="M3.5 8.5C3.5 7 4.5 6 6 6h11.5"></path>
    <rect x="3.5" y="6" width="17" height="13" rx="2.5"></rect>
    <path d="M20.5 12.5h-3.5a1.8 1.8 0 0 0 0 3.6h3.5"></path>
  </symbol>
  <symbol id="icon-link-partner" viewBox="0 0 24 24" fill="none" stroke="currentColor" stroke-width="2" stroke-linecap="round" stroke-linejoin="round">
    <path d="M10.5 13.5l-2.7 2.7a3 3 0 1 1-4.2-4.2l2.7-2.7a3 3 0 0 1 4.2 0"></path>
    <path d="M13.5 10.5l2.7-2.7a3 3 0 1 1 4.2 4.2l-2.7 2.7a3 3 0 0 1-4.2 0"></path>
    <path d="M9.5 14.5l5-5"></path>
  </symbol>
  <symbol id="icon-arrow-right" viewBox="0 0 24 24" fill="none" stroke="currentColor" stroke-width="2" stroke-linecap="round" stroke-linejoin="round">
    <path d="M4.5 12h15"></path>
    <path d="M13 5.5 19.5 12 13 18.5"></path>
  </symbol>
  <symbol id="icon-chevron-down" viewBox="0 0 24 24" fill="none" stroke="currentColor" stroke-width="2" stroke-linecap="round" stroke-linejoin="round">
    <path d="M6 9.5 12 15.5 18 9.5"></path>
  </symbol>
  <symbol id="icon-check" viewBox="0 0 24 24" fill="none" stroke="currentColor" stroke-width="2" stroke-linecap="round" stroke-linejoin="round">
    <path d="M5 12.5 9.8 17 19 7.5"></path>
  </symbol>
  <symbol id="icon-close" viewBox="0 0 24 24" fill="none" stroke="currentColor" stroke-width="2" stroke-linecap="round" stroke-linejoin="round">
    <path d="M6 6 18 18"></path>
    <path d="M18 6 6 18"></path>
  </symbol>
  </defs>
</svg>