<svg xmlns="http://www.w3.org/2000/svg" style="display:none" aria-hidden="true">
  <defs>
  <symbol id="icon-status-success" viewBox="0 0 24 24" fill="none" stroke="currentColor" stroke-width="2" stroke-linecap="round" stroke-linejoin="round">
    <circle cx="12" cy="12" r="9"></circle>
    <path d="M8 12l3 3 5-6"></path>
  </symbol>
  <symbol id="icon-status-warning" viewBox="0 0 24 24" fill="none" stroke="currentColor" stroke-width="2" stroke-linecap="round" stroke-linejoin="round">
    <path d="M12 3.5 21 19.5H3z"></path>
    <path d="M12 10v4.5"></path>
    <circle cx="12" cy="17" r="0.9" fill="currentColor" stroke="none"></circle>
  </symbol>
  <symbol id="icon-status-error" viewBox="0 0 24 24" fill="none" stroke="currentColor" stroke-width="2" stroke-linecap="round" stroke-linejoin="round">
    <circle cx="12" cy="12" r="9"></circle>
    <path d="M9 9l6 6"></path>
    <path d="M15 9l-6 6"></path>
  </symbol>
  <symbol id="icon-status-info" viewBox="0 0 24 24" fill="none" stroke="currentColor" stroke-width="2" stroke-linecap="round" stroke-linejoin="round">
    <circle cx="12" cy="12" r="9"></circle>
    <path d="M12 11v6"></path>
    <circle cx="12" cy="8" r="0.95" fill="currentColor" stroke="none"></circle>
  </symbol>
  <symbol id="icon-status-new" viewBox="0 0 24 24" fill="none" stroke="currentColor" stroke-width="2" stroke-linecap="round" stroke-linejoin="round">
    <circle cx="12" cy="12" r="2.6" fill="currentColor" stroke="none"></circle>
    <path d="M12 3v3"></path>
    <path d="M12 18v3"></path>
    <path d="M3 12h3"></path>
    <path d="M18 12h3"></path>
    <path d="M5.6 5.6l2 2"></path>
    <path d="M16.4 16.4l2 2"></path>
    <path d="M5.6 18.4l2-2"></path>
    <path d="M16.4 7.6l2-2"></path>
  </symbol>
  <symbol id="icon-status-order-new" viewBox="0 0 24 24" fill="none" stroke="currentColor" stroke-width="2" stroke-linecap="round" stroke-linejoin="round">
    <path d="M4 13v5.5a1 1 0 0 0 1 1h14a1 1 0 0 0 1-1V13h-5v2H9v-2z"></path>
    <path d="M12 4v8"></path>
    <path d="M9 9l3 3 3-3"></path>
  </symbol>
  <symbol id="icon-status-order-accepted" viewBox="0 0 24 24" fill="none" stroke="currentColor" stroke-width="2" stroke-linecap="round" stroke-linejoin="round">
    <path d="M6 3.5h8L19 8.5V19.5a1 1 0 0 1-1 1H6a1 1 0 0 1-1-1V4.5a1 1 0 0 1 1-1Z"></path>
    <path d="M14 3.5V8.5h5"></path>
    <path d="M8.5 13.5 11 16l5-5"></path>
  </symbol>
  <symbol id="icon-status-order-in-progress" viewBox="0 0 24 24" fill="none" stroke="currentColor" stroke-width="2" stroke-linecap="round" stroke-linejoin="round">
    <path d="M7 3.5h10"></path>
    <path d="M7 20.5h10"></path>
    <path d="M8 3.5v3l4 5 4-5v-3"></path>
    <path d="M8 20.5v-3l4-5 4 5v3"></path>
  </symbol>
  <symbol id="icon-status-order-delivery" viewBox="0 0 24 24" fill="none" stroke="currentColor" stroke-width="2" stroke-linecap="round" stroke-linejoin="round">
    <rect x="3.5" y="8" width="11" height="11" rx="1"></rect>
    <path d="M3.5 12.5h11"></path>
    <path d="M9 8v4.5"></path>
    <path d="M15.5 13.5h5"></path>
    <path d="M18 11l2.5 2.5L18 16"></path>
  </symbol>
  <symbol id="icon-status-order-done" viewBox="0 0 24 24" fill="none" stroke="currentColor" stroke-width="2" stroke-linecap="round" stroke-linejoin="round">
    <path d="M3 9l5-2 5 2v5l-5 2-5-2z"></path>
    <path d="M3 9l5 2 5-2"></path>
    <path d="M8 11v5"></path>
    <path d="M14 15l2.5 2.5L21 13"></path>
  </symbol>
  <symbol id="icon-status-order-cancelled" viewBox="0 0 24 24" fill="none" stroke="currentColor" stroke-width="2" stroke-linecap="round" stroke-linejoin="round">
    <path d="M3 9l5-2 5 2v5l-5 2-5-2z"></path>
    <path d="M3 9l5 2 5-2"></path>
    <path d="M8 11v5"></path>
    <path d="M15 13l5 5"></path>
    <path d="M20 13l-5 5"></path>
  </symbol>
  <symbol id="icon-status-booking-pending" viewBox="0 0 24 24" fill="none" stroke="currentColor" stroke-width="2" stroke-linecap="round" stroke-linejoin="round">
    <circle cx="9" cy="11" r="6.5"></circle>
    <path d="M9 7v4l2.5 1.5"></path>
    <circle cx="14.5" cy="19" r="0.95" fill="currentColor" stroke="none"></circle>
    <circle cx="17.5" cy="19" r="0.95" fill="currentColor" stroke="none"></circle>
    <circle cx="20.5" cy="19" r="0.95" fill="currentColor" stroke="none"></circle>
  </symbol>
  <symbol id="icon-status-booking-confirmed" viewBox="0 0 24 24" fill="none" stroke="currentColor" stroke-width="2" stroke-linecap="round" stroke-linejoin="round">
    <rect x="3.5" y="5.5" width="17" height="15" rx="2.5"></rect>
    <path d="M8 3.5V7"></path>
    <path d="M16 3.5V7"></path>
    <path d="M3.5 10.5h17"></path>
    <path d="M8 15l2.5 2.5L16 12"></path>
  </symbol>
  <symbol id="icon-status-booking-rescheduled" viewBox="0 0 24 24" fill="none" stroke="currentColor" stroke-width="2" stroke-linecap="round" stroke-linejoin="round">
    <rect x="3.5" y="5.5" width="17" height="15" rx="2.5"></rect>
    <path d="M8 3.5V7"></path>
    <path d="M16 3.5V7"></path>
    <path d="M3.5 10.5h17"></path>
    <path d="M8 16a4 4 0 0 1 7-2"></path>
    <path d="M15 11.5V14h-2.5"></path>
    <path d="M16 15a4 4 0 0 1-7 2"></path>
    <path d="M9 19.5V17h2.5"></path>
  </symbol>
  <symbol id="icon-status-booking-cancelled" viewBox="0 0 24 24" fill="none" stroke="currentColor" stroke-width="2" stroke-linecap="round" stroke-linejoin="round">
    <rect x="3.5" y="5.5" width="17" height="15" rx="2.5"></rect>
    <path d="M8 3.5V7"></path>
    <path d="M16 3.5V7"></path>
    <path d="M3.5 10.5h17"></path>
    <path d="M9 13.5l6 6"></path>
    <path d="M15 13.5l-6 6"></path>
  </symbol>
  </defs>
</svg>