<svg xmlns="http://www.w3.org/2000/svg" style="display:none" aria-hidden="true">
  <defs>
  <symbol id="icon-roadmap-now" viewBox="0 0 24 24" fill="none" stroke="currentColor" stroke-width="2" stroke-linecap="round" stroke-linejoin="round">
    <path d="M5 3.5V20.5"></path>
    <path d="M5 4h13l-2.5 4L18 12H5z"></path>
  </symbol>
  <symbol id="icon-roadmap-quarter" viewBox="0 0 24 24" fill="none" stroke="currentColor" stroke-width="2" stroke-linecap="round" stroke-linejoin="round">
    <circle cx="12" cy="12" r="9"></circle>
    <path d="M12 3v18"></path>
    <path d="M3 12h18"></path>
    <circle cx="16.5" cy="7.5" r="1" fill="currentColor" stroke="none"></circle>
  </symbol>
  <symbol id="icon-roadmap-live" viewBox="0 0 24 24" fill="none" stroke="currentColor" stroke-width="2" stroke-linecap="round" stroke-linejoin="round">
    <circle cx="12" cy="12" r="2.5" fill="currentColor" stroke="none"></circle>
    <circle cx="12" cy="12" r="5.5"></circle>
    <circle cx="12" cy="12" r="9"></circle>
  </symbol>
  <symbol id="icon-roadmap-loyalty" viewBox="0 0 24 24" fill="none" stroke="currentColor" stroke-width="2" stroke-linecap="round" stroke-linejoin="round">
    <rect x="3" y="8" width="18" height="4" rx="1"></rect>
    <path d="M4.5 12v7a2 2 0 0 0 2 2h11a2 2 0 0 0 2-2v-7"></path>
    <path d="M12 8v13"></path>
    <path d="M12 8a3 3 0 1 0-3-3 3 3 0 0 0 3 3z"></path>
    <path d="M12 8a3 3 0 1 1 3-3 3 3 0 0 1-3 3z"></path>
  </symbol>
  <symbol id="icon-roadmap-analytics" viewBox="0 0 24 24" fill="none" stroke="currentColor" stroke-width="2" stroke-linecap="round" stroke-linejoin="round">
    <path d="M3 19h18"></path>
    <path d="M4 15l4-3 4 1.5 4-5 4-1.5"></path>
    <circle cx="8" cy="12" r="1" fill="currentColor" stroke="none"></circle>
    <circle cx="12" cy="13.5" r="1" fill="currentColor" stroke="none"></circle>
    <circle cx="16" cy="8.5" r="1" fill="currentColor" stroke="none"></circle>
    <circle cx="20" cy="7" r="1" fill="currentColor" stroke="none"></circle>
  </symbol>
  <symbol id="icon-roadmap-automation" viewBox="0 0 24 24" fill="none" stroke="currentColor" stroke-width="2" stroke-linecap="round" stroke-linejoin="round">
    <path d="M3 12a9 9 0 0 1 15.3-6.4"></path>
    <path d="M18 3v3h-3"></path>
    <path d="M21 12a9 9 0 0 1-15.3 6.4"></path>
    <path d="M6 21v-3h3"></path>
    <path d="M12 9.5c0 1.5.8 2.3 2.3 2.3-1.5 0-2.3.8-2.3 2.3 0-1.5-.8-2.3-2.3-2.3 1.5 0 2.3-.8 2.3-2.3z"></path>
  </symbol>
  <symbol id="icon-roadmap-advisor" viewBox="0 0 24 24" fill="none" stroke="currentColor" stroke-width="2" stroke-linecap="round" stroke-linejoin="round">
    <circle cx="9" cy="13" r="3.5"></circle>
    <path d="M3 21c0-3.5 2.7-5 6-5s6 1.5 6 5"></path>
    <path d="M18 3c0 2 1 3 3 3-2 0-3 1-3 3 0-2-1-3-3-3 2 0 3-1 3-3z"></path>
  </symbol>
  </defs>
</svg>