<svg xmlns="http://www.w3.org/2000/svg" viewBox="0 0 24 24" fill="none" stroke="currentColor" stroke-width="1.8" stroke-linecap="round" stroke-linejoin="round" role="img" aria-label="Тикеты поддержки — талон обращения">
<path d="M3.5 9.3 V8 A1.5 1.5 0 0 1 5 6.5 H19 A1.5 1.5 0 0 1 20.5 8 V9.3 A1.6 1.6 0 0 0 20.5 12.5 V16 A1.5 1.5 0 0 1 19 17.5 H5 A1.5 1.5 0 0 1 3.5 16 V12.5 A1.6 1.6 0 0 0 3.5 9.3 Z"></path>
<path d="M14 7.2 V9"></path>
<path d="M14 11.3 V12.7"></path>
<path d="M14 15 V16.8"></path>
<circle cx="8.4" cy="12" r="1.05" fill="currentColor" stroke="none"></circle>
</svg>