<svg xmlns="http://www.w3.org/2000/svg" style="display:none">
  <symbol id="icon-home" viewBox="0 0 24 24" fill="none" stroke="currentColor" stroke-width="2" stroke-linecap="round" stroke-linejoin="round">
    <path d="M3 10.5 12 3l9 7.5"></path>
    path d=&#34;M5 9.5V20a1 1 0 0 0 1 1h12a1 1 0 0 0 1-1V9.5&#34;/&gt;
    path d=&#34;M9.5 21v-6a1 1 0 0 1 1-1h3a1 1 0 0 1 1 1v6&#34;/&gt;
  </symbol>
  <symbol id="icon-info" viewBox="0 0 24 24" fill="none" stroke="currentColor" stroke-width="2" stroke-linecap="round" stroke-linejoin="round">
    <circle cx="12" cy="12" r="9"></circle>
    line x1=&#34;12&#34; y1=&#34;11&#34; x2=&#34;12&#34; y2=&#34;16&#34;/&gt;
    line x1=&#34;12&#34; y1=&#34;8&#34; x2=&#34;12.01&#34; y2=&#34;8&#34;/&gt;
  </symbol>
  <symbol id="icon-user" viewBox="0 0 24 24" fill="none" stroke="currentColor" stroke-width="2" stroke-linecap="round" stroke-linejoin="round">
    <circle cx="12" cy="8" r="4"></circle>
    path d=&#34;M4 21v-1a6 6 0 0 1 6-6h4a6 6 0 0 1 6 6v1&#34;/&gt;
  </symbol>
  <symbol id="icon-rocket" viewBox="0 0 24 24" fill="none" stroke="currentColor" stroke-width="2" stroke-linecap="round" stroke-linejoin="round">
    <path d="M4.5 16.5c-1.5 1.26-2 5-2 5s3.74-.5 5-2c.78-.78.78-2.05 0-2.83a2 2 0 0 0-3-.17z"></path>
    path d=&#34;M12 15l-3-3a22 22 0 0 1 2-3.95A12.88 12.88 0 0 1 22 2c0 2.72-.78 7.5-6 11a22.35 22.35 0 0 1-4 2z&#34;/&gt;
    path d=&#34;M9 12H4s.55-3.03 2-4c1.62-1.08 5 0 5 0&#34;/&gt;
    path d=&#34;M12 15v5s3.03-.55 4-2c1.08-1.62 0-5 0-5&#34;/&gt;
  </symbol>
  <symbol id="icon-plug" viewBox="0 0 24 24" fill="none" stroke="currentColor" stroke-width="2" stroke-linecap="round" stroke-linejoin="round">
    <path d="M9 8V3"></path>
    path d=&#34;M15 8V3&#34;/&gt;
    path d=&#34;M6 8h12v4a5 5 0 0 1-5 5h-2a5 5 0 0 1-5-5V8z&#34;/&gt;
    path d=&#34;M12 17v4&#34;/&gt;
  </symbol>
  <symbol id="icon-layers" viewBox="0 0 24 24" fill="none" stroke="currentColor" stroke-width="2" stroke-linecap="round" stroke-linejoin="round">
    <path d="m12 3 9 5-9 5-9-5 9-5z"></path>
    path d=&#34;m3 13 9 5 9-5&#34;/&gt;
    path d=&#34;m3 18 9 5 9-5&#34;/&gt;
  </symbol>
  <symbol id="icon-flask" viewBox="0 0 24 24" fill="none" stroke="currentColor" stroke-width="2" stroke-linecap="round" stroke-linejoin="round">
    <path d="M10 3v6L4.5 18a2 2 0 0 0 1.74 3h11.52a2 2 0 0 0 1.74-3L14 9V3"></path>
    path d=&#34;M8.5 3h7&#34;/&gt;
    path d=&#34;M7 14h10&#34;/&gt;
  </symbol>
  <symbol id="icon-life-buoy" viewBox="0 0 24 24" fill="none" stroke="currentColor" stroke-width="2" stroke-linecap="round" stroke-linejoin="round">
    <circle cx="12" cy="12" r="9"></circle>
    circle cx=&#34;12&#34; cy=&#34;12&#34; r=&#34;4&#34;/&gt;
    line x1=&#34;4.93&#34; y1=&#34;4.93&#34; x2=&#34;9.17&#34; y2=&#34;9.17&#34;/&gt;
    line x1=&#34;14.83&#34; y1=&#34;14.83&#34; x2=&#34;19.07&#34; y2=&#34;19.07&#34;/&gt;
    line x1=&#34;14.83&#34; y1=&#34;9.17&#34; x2=&#34;19.07&#34; y2=&#34;4.93&#34;/&gt;
    line x1=&#34;4.93&#34; y1=&#34;19.07&#34; x2=&#34;9.17&#34; y2=&#34;14.83&#34;/&gt;
  </symbol>
  <symbol id="icon-briefcase" viewBox="0 0 24 24" fill="none" stroke="currentColor" stroke-width="2" stroke-linecap="round" stroke-linejoin="round">
    <rect x="2.5" y="7" width="19" height="14" rx="2"></rect>
    path d=&#34;M16 21V5a2 2 0 0 0-2-2h-4a2 2 0 0 0-2 2v16&#34;/&gt;
    path d=&#34;M2.5 13h19&#34;/&gt;
  </symbol>
  <symbol id="icon-megaphone" viewBox="0 0 24 24" fill="none" stroke="currentColor" stroke-width="2" stroke-linecap="round" stroke-linejoin="round">
    <path d="m3 11 14-5v12L3 13v-2z"></path>
    path d=&#34;M17 7.5v9&#34;/&gt;
    path d=&#34;M17 8a3 3 0 0 1 0 6&#34;/&gt;
    path d=&#34;M11.5 17.2a3 3 0 1 1-5.6-1.7&#34;/&gt;
  </symbol>
  <symbol id="icon-bolt" viewBox="0 0 24 24" fill="none" stroke="currentColor" stroke-width="2" stroke-linecap="round" stroke-linejoin="round">
    <path d="M13 2 4 14h7l-1 8 9-12h-7l1-8z"></path>
  </symbol>
  <symbol id="icon-calendar-clock" viewBox="0 0 24 24" fill="none" stroke="currentColor" stroke-width="2" stroke-linecap="round" stroke-linejoin="round">
    <path d="M21 11V6a2 2 0 0 0-2-2H5a2 2 0 0 0-2 2v14a2 2 0 0 0 2 2h6"></path>
    path d=&#34;M16 2v4&#34;/&gt;
    path d=&#34;M8 2v4&#34;/&gt;
    path d=&#34;M3 10h18&#34;/&gt;
    circle cx=&#34;17&#34; cy=&#34;17&#34; r=&#34;5&#34;/&gt;
    path d=&#34;M17 15v2l1.2 1.2&#34;/&gt;
  </symbol>
  <symbol id="icon-message-circle" viewBox="0 0 24 24" fill="none" stroke="currentColor" stroke-width="2" stroke-linecap="round" stroke-linejoin="round">
    <path d="M21 12a8 8 0 0 1-11.6 7.1L3 21l1.9-6.4A8 8 0 1 1 21 12z"></path>
  </symbol>
  <symbol id="icon-settings" viewBox="0 0 24 24" fill="none" stroke="currentColor" stroke-width="2" stroke-linecap="round" stroke-linejoin="round">
    <path d="M12.22 2h-.44a2 2 0 0 0-2 2v.18a2 2 0 0 1-1 1.73l-.43.25a2 2 0 0 1-2 0l-.15-.08a2 2 0 0 0-2.73.73l-.22.38a2 2 0 0 0 .73 2.73l.15.1a2 2 0 0 1 1 1.72v.5a2 2 0 0 1-1 1.74l-.15.09a2 2 0 0 0-.73 2.73l.22.38a2 2 0 0 0 2.73.73l.15-.08a2 2 0 0 1 2 0l.43.25a2 2 0 0 1 1 1.73V20a2 2 0 0 0 2 2h.44a2 2 0 0 0 2-2v-.18a2 2 0 0 1 1-1.73l.43-.25a2 2 0 0 1 2 0l.15.08a2 2 0 0 0 2.73-.73l.22-.39a2 2 0 0 0-.73-2.73l-.15-.08a2 2 0 0 1-1-1.74v-.5a2 2 0 0 1 1-1.74l.15-.09a2 2 0 0 0 .73-2.73l-.22-.38a2 2 0 0 0-2.73-.73l-.15.08a2 2 0 0 1-2 0l-.43-.25a2 2 0 0 1-1-1.73V4a2 2 0 0 0-2-2z"></path>
    circle cx=&#34;12&#34; cy=&#34;12&#34; r=&#34;3&#34;/&gt;
  </symbol>
  <symbol id="icon-credit-card" viewBox="0 0 24 24" fill="none" stroke="currentColor" stroke-width="2" stroke-linecap="round" stroke-linejoin="round">
    <rect x="2.5" y="5" width="19" height="14" rx="2"></rect>
    line x1=&#34;2.5&#34; y1=&#34;10&#34; x2=&#34;21.5&#34; y2=&#34;10&#34;/&gt;
    line x1=&#34;6&#34; y1=&#34;15&#34; x2=&#34;9&#34; y2=&#34;15&#34;/&gt;
  </symbol>
  <symbol id="icon-users" viewBox="0 0 24 24" fill="none" stroke="currentColor" stroke-width="2" stroke-linecap="round" stroke-linejoin="round">
    <path d="M16 21v-2a4 4 0 0 0-4-4H6a4 4 0 0 0-4 4v2"></path>
    circle cx=&#34;9&#34; cy=&#34;7&#34; r=&#34;4&#34;/&gt;
    path d=&#34;M22 21v-2a4 4 0 0 0-3-3.87&#34;/&gt;
    path d=&#34;M16 3.13a4 4 0 0 1 0 7.75&#34;/&gt;
  </symbol>
  <symbol id="icon-file-text" viewBox="0 0 24 24" fill="none" stroke="currentColor" stroke-width="2" stroke-linecap="round" stroke-linejoin="round">
    <path d="M14 3H6a2 2 0 0 0-2 2v14a2 2 0 0 0 2 2h12a2 2 0 0 0 2-2V9z"></path>
    path d=&#34;M14 3v6h6&#34;/&gt;
    line x1=&#34;8&#34; y1=&#34;13&#34; x2=&#34;16&#34; y2=&#34;13&#34;/&gt;
    line x1=&#34;8&#34; y1=&#34;17&#34; x2=&#34;14&#34; y2=&#34;17&#34;/&gt;
  </symbol>
  <symbol id="icon-help-circle" viewBox="0 0 24 24" fill="none" stroke="currentColor" stroke-width="2" stroke-linecap="round" stroke-linejoin="round">
    <circle cx="12" cy="12" r="9"></circle>
    path d=&#34;M9.5 9a2.5 2.5 0 0 1 5 .4c0 1.6-2.5 2.4-2.5 3.6&#34;/&gt;
    line x1=&#34;12&#34; y1=&#34;17&#34; x2=&#34;12.01&#34; y2=&#34;17&#34;/&gt;
  </symbol>
  <symbol id="icon-file" viewBox="0 0 24 24" fill="none" stroke="currentColor" stroke-width="2" stroke-linecap="round" stroke-linejoin="round">
    <path d="M14 3H6a2 2 0 0 0-2 2v14a2 2 0 0 0 2 2h12a2 2 0 0 0 2-2V9z"></path>
    path d=&#34;M14 3v6h6&#34;/&gt;
  </symbol>
  <symbol id="icon-scroll" viewBox="0 0 24 24" fill="none" stroke="currentColor" stroke-width="2" stroke-linecap="round" stroke-linejoin="round">
    <path d="M19 17V6a3 3 0 0 0-3-3H5"></path>
    path d=&#34;M5 3a3 3 0 0 0-3 3v2a1 1 0 0 0 1 1h3&#34;/&gt;
    path d=&#34;M22 17H9a1 1 0 0 0-1 1v1a2 2 0 1 1-4 0V8&#34;/&gt;
    path d=&#34;M22 17v2a2 2 0 0 1-2 2H8&#34;/&gt;
  </symbol>
  <symbol id="icon-lock" viewBox="0 0 24 24" fill="none" stroke="currentColor" stroke-width="2" stroke-linecap="round" stroke-linejoin="round">
    <rect x="4" y="11" width="16" height="10" rx="2"></rect>
    path d=&#34;M7.5 11V7.5a4.5 4.5 0 0 1 9 0V11&#34;/&gt;
    line x1=&#34;12&#34; y1=&#34;15&#34; x2=&#34;12&#34; y2=&#34;17&#34;/&gt;
  </symbol>
  <symbol id="icon-id-card" viewBox="0 0 24 24" fill="none" stroke="currentColor" stroke-width="2" stroke-linecap="round" stroke-linejoin="round">
    <rect x="2.5" y="5" width="19" height="14" rx="2"></rect>
    circle cx=&#34;9&#34; cy=&#34;11.5&#34; r=&#34;2.5&#34;/&gt;
    path d=&#34;M5 17c.5-2 2-3 4-3s3.5 1 4 3&#34;/&gt;
    line x1=&#34;15&#34; y1=&#34;10&#34; x2=&#34;19&#34; y2=&#34;10&#34;/&gt;
    line x1=&#34;15&#34; y1=&#34;14&#34; x2=&#34;18&#34; y2=&#34;14&#34;/&gt;
  </symbol>
  <symbol id="icon-download" viewBox="0 0 24 24" fill="none" stroke="currentColor" stroke-width="2" stroke-linecap="round" stroke-linejoin="round">
    <path d="M21 15v4a2 2 0 0 1-2 2H5a2 2 0 0 1-2-2v-4"></path>
    polyline points=&#34;7 10 12 15 17 10&#34;/&gt;
    line x1=&#34;12&#34; y1=&#34;15&#34; x2=&#34;12&#34; y2=&#34;3&#34;/&gt;
  </symbol>
  <symbol id="icon-clock" viewBox="0 0 24 24" fill="none" stroke="currentColor" stroke-width="2" stroke-linecap="round" stroke-linejoin="round">
    <circle cx="12" cy="12" r="9"></circle>
    polyline points=&#34;12 7 12 12 16 14&#34;/&gt;
  </symbol>
  <symbol id="icon-percent" viewBox="0 0 24 24" fill="none" stroke="currentColor" stroke-width="2" stroke-linecap="round" stroke-linejoin="round">
    <line x1="19" y1="5" x2="5" y2="19"></line>
    circle cx=&#34;7.5&#34; cy=&#34;7.5&#34; r=&#34;2.5&#34;/&gt;
    circle cx=&#34;16.5&#34; cy=&#34;16.5&#34; r=&#34;2.5&#34;/&gt;
  </symbol>
  <symbol id="icon-bar-chart" viewBox="0 0 24 24" fill="none" stroke="currentColor" stroke-width="2" stroke-linecap="round" stroke-linejoin="round">
    <line x1="3" y1="21" x2="21" y2="21"></line>
    line x1=&#34;7&#34; y1=&#34;21&#34; x2=&#34;7&#34; y2=&#34;13&#34;/&gt;
    line x1=&#34;12&#34; y1=&#34;21&#34; x2=&#34;12&#34; y2=&#34;8&#34;/&gt;
    line x1=&#34;17&#34; y1=&#34;21&#34; x2=&#34;17&#34; y2=&#34;16&#34;/&gt;
  </symbol>
  <symbol id="icon-external-link" viewBox="0 0 24 24" fill="none" stroke="currentColor" stroke-width="2" stroke-linecap="round" stroke-linejoin="round">
    <path d="M18 13v6a2 2 0 0 1-2 2H5a2 2 0 0 1-2-2V8a2 2 0 0 1 2-2h6"></path>
    polyline points=&#34;15 3 21 3 21 9&#34;/&gt;
    line x1=&#34;10&#34; y1=&#34;14&#34; x2=&#34;21&#34; y2=&#34;3&#34;/&gt;
  </symbol>
  <symbol id="icon-mouse-pointer" viewBox="0 0 24 24" fill="none" stroke="currentColor" stroke-width="2" stroke-linecap="round" stroke-linejoin="round">
    <path d="M3 3 10 21l2.5-8.5L21 10z"></path>
    path d=&#34;m13 13 6 6&#34;/&gt;
  </symbol>
  <symbol id="icon-keyboard" viewBox="0 0 24 24" fill="none" stroke="currentColor" stroke-width="2" stroke-linecap="round" stroke-linejoin="round">
    <rect x="2.5" y="6" width="19" height="12" rx="2"></rect>
    line x1=&#34;6&#34; y1=&#34;10&#34; x2=&#34;6.01&#34; y2=&#34;10&#34;/&gt;
    line x1=&#34;10&#34; y1=&#34;10&#34; x2=&#34;10.01&#34; y2=&#34;10&#34;/&gt;
    line x1=&#34;14&#34; y1=&#34;10&#34; x2=&#34;14.01&#34; y2=&#34;10&#34;/&gt;
    line x1=&#34;18&#34; y1=&#34;10&#34; x2=&#34;18.01&#34; y2=&#34;10&#34;/&gt;
    line x1=&#34;6&#34; y1=&#34;14&#34; x2=&#34;6.01&#34; y2=&#34;14&#34;/&gt;
    line x1=&#34;18&#34; y1=&#34;14&#34; x2=&#34;18.01&#34; y2=&#34;14&#34;/&gt;
    line x1=&#34;8.5&#34; y1=&#34;14&#34; x2=&#34;15.5&#34; y2=&#34;14&#34;/&gt;
  </symbol>
  <symbol id="icon-warning" viewBox="0 0 24 24" fill="none" stroke="currentColor" stroke-width="2" stroke-linecap="round" stroke-linejoin="round">
    <path d="M10.29 3.86 1.82 18a2 2 0 0 0 1.71 3h16.94a2 2 0 0 0 1.71-3L13.71 3.86a2 2 0 0 0-3.42 0z"></path>
    line x1=&#34;12&#34; y1=&#34;9&#34; x2=&#34;12&#34; y2=&#34;13&#34;/&gt;
    line x1=&#34;12&#34; y1=&#34;17&#34; x2=&#34;12.01&#34; y2=&#34;17&#34;/&gt;
  </symbol>
  <symbol id="max-glyph" viewBox="0 0 512 512">
    <g fill="currentColor" transform="translate(-13 -16) scale(0.572)">
      <path fill-rule="evenodd" clip-rule="evenodd" d="M508.211 878.328c-75.007 0-109.864-10.95-170.453-54.75-38.325 49.275-159.686 87.783-164.979 21.9 0-49.456-10.95-91.248-23.36-136.873-14.782-56.21-31.572-118.807-31.572-209.508 0-216.626 177.754-379.597 388.357-379.597 210.785 0 375.947 171.001 375.947 381.604.707 207.346-166.595 376.118-373.94 377.224m3.103-571.585c-102.564-5.292-182.499 65.7-200.201 177.024-14.6 92.162 11.315 204.398 33.397 210.238 10.585 2.555 37.23-18.98 53.837-35.587a189.8 189.8 0 0 0 92.71 33.032c106.273 5.112 197.08-75.794 204.215-181.95 4.154-106.382-77.67-196.486-183.958-202.574Z"></path>
    </g>
  </symbol>
  <symbol id="max-outline" viewBox="0 0 512 512">
    <rect x="22" y="22" width="468" height="468" rx="100" ry="100" fill="none" stroke="currentColor" stroke-width="32"></rect>
    <g fill="currentColor" transform="translate(61 61) scale(0.39)">
      <path fill-rule="evenodd" clip-rule="evenodd" d="M508.211 878.328c-75.007 0-109.864-10.95-170.453-54.75-38.325 49.275-159.686 87.783-164.979 21.9 0-49.456-10.95-91.248-23.36-136.873-14.782-56.21-31.572-118.807-31.572-209.508 0-216.626 177.754-379.597 388.357-379.597 210.785 0 375.947 171.001 375.947 381.604.707 207.346-166.595 376.118-373.94 377.224m3.103-571.585c-102.564-5.292-182.499 65.7-200.201 177.024-14.6 92.162 11.315 204.398 33.397 210.238 10.585 2.555 37.23-18.98 53.837-35.587a189.8 189.8 0 0 0 92.71 33.032c106.273 5.112 197.08-75.794 204.215-181.95 4.154-106.382-77.67-196.486-183.958-202.574Z"></path>
    </g>
  </symbol>
</svg>