<svg xmlns="http://www.w3.org/2000/svg" width="24" height="24" viewBox="0 0 24 24" fill="none" stroke="currentColor" stroke-width="2" stroke-linecap="round" stroke-linejoin="round" role="img" aria-label="Справка">
<path d="M4 5.5C4 4.7 4.7 4 5.5 4H10c1.1 0 2 .9 2 2v14c0-1.1-.9-2-2-2H5.5C4.7 18 4 17.3 4 16.5Z"></path>
<path d="M20 5.5C20 4.7 19.3 4 18.5 4H14c-1.1 0-2 .9-2 2v14c0-1.1.9-2 2-2h4.5c.8 0 1.5-.7 1.5-1.5Z"></path>
<path d="M14.6 8.4c0-.66.6-1.4 1.4-1.4s1.4.74 1.4 1.4c0 .7-1.4 1.1-1.4 2"></path>
<circle cx="16" cy="13" r="0.5" fill="currentColor" stroke="none"></circle>
</svg>