<svg xmlns="http://www.w3.org/2000/svg" width="512" height="512" viewBox="0 0 512 512" role="img" aria-label="MAX logo icon in light theme">
  <defs>
    <linearGradient id="lb" x1="0" y1="0" x2="1" y2="1">
      <stop offset="0" stop-color="#f7f7f3"></stop>
      <stop offset="0.55" stop-color="#ecebe7"></stop>
      <stop offset="1" stop-color="#fbfbf8"></stop>
    </linearGradient>

    <pattern id="lgrain" width="24" height="16" patternUnits="userSpaceOnUse">
      <rect width="24" height="8" fill="#d8d8d3" fill-opacity="0.28"></rect>
      <rect y="8" width="24" height="8" fill="#ffffff" fill-opacity="0.35"></rect>
    </pattern>

    <radialGradient id="lw" cx="0.85" cy="0.15" r="0.75">
      <stop offset="0" stop-color="#c9a646" stop-opacity="0.08"></stop>
      <stop offset="0.55" stop-color="#c9a646" stop-opacity="0.02"></stop>
      <stop offset="1" stop-color="#ffffff" stop-opacity="0"></stop>
    </radialGradient>

    <linearGradient id="lte" x1="0" y1="0" x2="0" y2="1">
      <stop offset="0" stop-color="#ffffff" stop-opacity="0.85"></stop>
      <stop offset="0.08" stop-color="#ffffff" stop-opacity="0"></stop>
    </linearGradient>

    <radialGradient id="lig" cx="0.78" cy="0.22" r="0.55">
      <stop offset="0" stop-color="#ffffff" stop-opacity="0.45"></stop>
      <stop offset="1" stop-color="#ffffff" stop-opacity="0"></stop>
    </radialGradient>

    <linearGradient id="lbs" x1="0" y1="0.7" x2="0" y2="1">
      <stop offset="0" stop-color="#000000" stop-opacity="0"></stop>
      <stop offset="1" stop-color="#000000" stop-opacity="0.06"></stop>
    </linearGradient>

    <linearGradient id="logoFill" x1="0" y1="0" x2="1" y2="1">
      <stop offset="0" stop-color="#101112"></stop>
      <stop offset="1" stop-color="#1e1f20"></stop>
    </linearGradient>

    <clipPath id="clip">
      <rect x="4" y="4" width="504" height="504" rx="108" ry="108"></rect>
    </clipPath>
  </defs>

  <g clip-path="url(#clip)">
    <rect width="512" height="512" fill="#ececec"></rect>
    <rect width="512" height="512" fill="url(#lb)"></rect>
    <rect width="512" height="512" fill="url(#lgrain)" opacity="0.75"></rect>
    <rect width="512" height="512" fill="url(#lw)"></rect>
    <rect width="512" height="512" fill="url(#lig)"></rect>
    <rect width="512" height="512" fill="url(#lbs)"></rect>
    <rect width="512" height="512" fill="url(#lte)"></rect>
  </g>

  <rect x="5" y="5" width="502" height="502" rx="107" ry="107" fill="none" stroke="#2a2a2a" stroke-opacity="0.22" stroke-width="10"></rect>

  <g transform="translate(61 61) scale(0.39)">
    <path fill="url(#logoFill)" fill-rule="evenodd" d="M508.211 878.328c-75.007 0-109.864-10.95-170.453-54.75-38.325 49.275-159.686 87.783-164.979 21.9 0-49.456-10.95-91.248-23.36-136.873-14.782-56.21-31.572-118.807-31.572-209.508 0-216.626 177.754-379.597 388.357-379.597 210.785 0 375.947 171.001 375.947 381.604.707 207.346-166.595 376.118-373.94 377.224m3.103-571.585c-102.564-5.292-182.499 65.7-200.201 177.024-14.6 92.162 11.315 204.398 33.397 210.238 10.585 2.555 37.23-18.98 53.837-35.587a189.8 189.8 0 0 0 92.71 33.032c106.273 5.112 197.08-75.794 204.215-181.95 4.154-106.382-77.67-196.486-183.958-202.574Z" clip-rule="evenodd"></path>
  </g>
</svg>