<svg xmlns="http://www.w3.org/2000/svg" style="display:none" aria-hidden="true">
  <defs>
  <symbol id="icon-action-add" viewBox="0 0 24 24" fill="none" stroke="currentColor" stroke-width="2" stroke-linecap="round" stroke-linejoin="round">
    <path d="M12 4.5V19.5"></path>
    <path d="M4.5 12H19.5"></path>
  </symbol>
  <symbol id="icon-action-edit" viewBox="0 0 24 24" fill="none" stroke="currentColor" stroke-width="2" stroke-linecap="round" stroke-linejoin="round">
    <path d="M16.5 3.5a2.121 2.121 0 1 1 3 3L7 19l-4 1 1-4z"></path>
    <path d="M14.5 5.5l3 3"></path>
  </symbol>
  <symbol id="icon-action-save" viewBox="0 0 24 24" fill="none" stroke="currentColor" stroke-width="2" stroke-linecap="round" stroke-linejoin="round">
    <path d="M19 21H5a1 1 0 0 1-1-1V5a1 1 0 0 1 1-1h11l4 4v12a1 1 0 0 1-1 1Z"></path>
    <path d="M8 4v5h8V4"></path>
    <path d="M8 21v-7h8v7"></path>
  </symbol>
  <symbol id="icon-action-delete" viewBox="0 0 24 24" fill="none" stroke="currentColor" stroke-width="2" stroke-linecap="round" stroke-linejoin="round">
    <path d="M4 6.5h16"></path>
    <path d="M9 6.5V4.5a1 1 0 0 1 1-1h4a1 1 0 0 1 1 1V6.5"></path>
    <path d="M6 6.5v13a2 2 0 0 0 2 2h8a2 2 0 0 0 2-2v-13"></path>
    <path d="M10 11v6"></path>
    <path d="M14 11v6"></path>
  </symbol>
  <symbol id="icon-action-archive" viewBox="0 0 24 24" fill="none" stroke="currentColor" stroke-width="2" stroke-linecap="round" stroke-linejoin="round">
    <rect x="3.5" y="3.5" width="17" height="5" rx="1"></rect>
    <path d="M5 8.5V19.5a1 1 0 0 0 1 1h12a1 1 0 0 0 1-1V8.5"></path>
    <path d="M10 13h4"></path>
  </symbol>
  <symbol id="icon-action-search" viewBox="0 0 24 24" fill="none" stroke="currentColor" stroke-width="2" stroke-linecap="round" stroke-linejoin="round">
    <circle cx="10.5" cy="10.5" r="6.5"></circle>
    <path d="M15.5 15.5l4.5 4.5"></path>
  </symbol>
  <symbol id="icon-action-filter" viewBox="0 0 24 24" fill="none" stroke="currentColor" stroke-width="2" stroke-linecap="round" stroke-linejoin="round">
    <path d="M4 5h16l-6 7v7l-4-2v-5z"></path>
  </symbol>
  <symbol id="icon-action-sort" viewBox="0 0 24 24" fill="none" stroke="currentColor" stroke-width="2" stroke-linecap="round" stroke-linejoin="round">
    <path d="M4 8l3-3 3 3"></path>
    <path d="M7 5v15"></path>
    <path d="M14 16l3 3 3-3"></path>
    <path d="M17 4v15"></path>
  </symbol>
  <symbol id="icon-action-refresh" viewBox="0 0 24 24" fill="none" stroke="currentColor" stroke-width="2" stroke-linecap="round" stroke-linejoin="round">
    <path d="M4 12a8 8 0 0 1 13.66-5.66"></path>
    <path d="M18 3v5h-5"></path>
    <path d="M20 12a8 8 0 0 1-13.66 5.66"></path>
    <path d="M6 21v-5h5"></path>
  </symbol>
  <symbol id="icon-action-export" viewBox="0 0 24 24" fill="none" stroke="currentColor" stroke-width="2" stroke-linecap="round" stroke-linejoin="round">
    <path d="M4.5 14v5.5a1 1 0 0 0 1 1h13a1 1 0 0 0 1-1V14"></path>
    <path d="M7.5 8.5L12 4l4.5 4.5"></path>
    <path d="M12 4v11"></path>
  </symbol>
  <symbol id="icon-action-import" viewBox="0 0 24 24" fill="none" stroke="currentColor" stroke-width="2" stroke-linecap="round" stroke-linejoin="round">
    <path d="M4.5 14v5.5a1 1 0 0 0 1 1h13a1 1 0 0 0 1-1V14"></path>
    <path d="M7.5 10.5L12 15l4.5-4.5"></path>
    <path d="M12 4v11"></path>
  </symbol>
  <symbol id="icon-action-share-link" viewBox="0 0 24 24" fill="none" stroke="currentColor" stroke-width="2" stroke-linecap="round" stroke-linejoin="round">
    <circle cx="18" cy="5" r="2.6"></circle>
    <circle cx="6" cy="12" r="2.6"></circle>
    <circle cx="18" cy="19" r="2.6"></circle>
    <path d="M8.3 10.7 15.7 6.3"></path>
    <path d="M8.3 13.3 15.7 17.7"></path>
  </symbol>
  <symbol id="icon-action-copy" viewBox="0 0 24 24" fill="none" stroke="currentColor" stroke-width="2" stroke-linecap="round" stroke-linejoin="round">
    <rect x="8" y="8" width="12" height="12" rx="2"></rect>
    <path d="M16 8V6a2 2 0 0 0-2-2H6a2 2 0 0 0-2 2v8a2 2 0 0 0 2 2h2"></path>
  </symbol>
  <symbol id="icon-action-download" viewBox="0 0 24 24" fill="none" stroke="currentColor" stroke-width="2" stroke-linecap="round" stroke-linejoin="round">
    <path d="M4 14.9A7 7 0 1 1 15.7 8a5 5 0 0 1 1.8 9.6"></path>
    <path d="M8 17l4 4 4-4"></path>
    <path d="M12 12v9"></path>
  </symbol>
  <symbol id="icon-action-upload" viewBox="0 0 24 24" fill="none" stroke="currentColor" stroke-width="2" stroke-linecap="round" stroke-linejoin="round">
    <path d="M4 14.9A7 7 0 1 1 15.7 8a5 5 0 0 1 1.8 9.6"></path>
    <path d="M8 16l4-4 4 4"></path>
    <path d="M12 12v9"></path>
  </symbol>
  <symbol id="icon-action-print" viewBox="0 0 24 24" fill="none" stroke="currentColor" stroke-width="2" stroke-linecap="round" stroke-linejoin="round">
    <path d="M7 9V4h10v5"></path>
    <path d="M7 18H5a1 1 0 0 1-1-1v-6a2 2 0 0 1 2-2h12a2 2 0 0 1 2 2v6a1 1 0 0 1-1 1h-2"></path>
    <rect x="7" y="14" width="10" height="6.5" rx="0.5"></rect>
    <circle cx="17.2" cy="12.2" r="0.8" fill="currentColor" stroke="none"></circle>
  </symbol>
  <symbol id="icon-action-external-link" viewBox="0 0 24 24" fill="none" stroke="currentColor" stroke-width="2" stroke-linecap="round" stroke-linejoin="round">
    <path d="M14 4h6v6"></path>
    <path d="M20 4l-9 9"></path>
    <path d="M18 13v6a1 1 0 0 1-1 1H5a1 1 0 0 1-1-1V7a1 1 0 0 1 1-1h6"></path>
  </symbol>
  <symbol id="icon-action-expand" viewBox="0 0 24 24" fill="none" stroke="currentColor" stroke-width="2" stroke-linecap="round" stroke-linejoin="round">
    <path d="M4 9V4h5"></path>
    <path d="M20 9V4h-5"></path>
    <path d="M4 15v5h5"></path>
    <path d="M20 15v5h-5"></path>
  </symbol>
  <symbol id="icon-action-collapse" viewBox="0 0 24 24" fill="none" stroke="currentColor" stroke-width="2" stroke-linecap="round" stroke-linejoin="round">
    <path d="M9 4v5H4"></path>
    <path d="M15 4v5h5"></path>
    <path d="M9 20v-5H4"></path>
    <path d="M15 20v-5h5"></path>
  </symbol>
  </defs>
</svg>