<svg xmlns="http://www.w3.org/2000/svg" viewBox="0 0 64 64" role="img" aria-label="СММ АЙБРО — favicon light">
  <defs>
    <linearGradient id="fl-head" x1="0.18" y1="0.08" x2="0.92" y2="0.96">
      <stop offset="0" stop-color="#34d399"></stop>
      <stop offset="0.50" stop-color="#10b981"></stop>
      <stop offset="1" stop-color="#047857"></stop>
    </linearGradient>
    <radialGradient id="fl-sheen" cx="0.30" cy="0.18" r="0.60">
      <stop offset="0" stop-color="#ffffff" stop-opacity="0.40"></stop>
      <stop offset="0.55" stop-color="#ffffff" stop-opacity="0.05"></stop>
      <stop offset="1" stop-color="#ffffff" stop-opacity="0"></stop>
    </radialGradient>
    <radialGradient id="fl-shade" cx="0.82" cy="0.92" r="0.70">
      <stop offset="0" stop-color="#064e3b" stop-opacity="0.40"></stop>
      <stop offset="1" stop-color="#064e3b" stop-opacity="0"></stop>
    </radialGradient>
    <linearGradient id="fl-ball" x1="0.15" y1="0.10" x2="0.85" y2="0.95">
      <stop offset="0" stop-color="#6ee7b7"></stop>
      <stop offset="0.55" stop-color="#10b981"></stop>
      <stop offset="1" stop-color="#047857"></stop>
    </linearGradient>
    <linearGradient id="fl-ear" x1="0" y1="0" x2="0" y2="1">
      <stop offset="0" stop-color="#10b981"></stop>
      <stop offset="1" stop-color="#047857"></stop>
    </linearGradient>
    <clipPath id="fl-clip">
      <rect x="10" y="18" width="44" height="40" rx="13.5" ry="13.5"></rect>
    </clipPath>
  </defs>

  
  <line x1="32" y1="18" x2="32" y2="11.5" stroke="#047857" stroke-width="1.8" stroke-linecap="round"></line>
  <circle cx="32" cy="9" r="3.2" fill="url(#fl-ball)" stroke="#047857" stroke-opacity="0.55" stroke-width="0.8"></circle>
  <circle cx="31.1" cy="8.1" r="0.85" fill="#ffffff" fill-opacity="0.78"></circle>

  
  <rect x="3.5" y="32.5" width="7" height="14" rx="3.5" fill="url(#fl-ear)" stroke="#047857" stroke-opacity="0.65" stroke-width="1.1"></rect>
  <rect x="5.4" y="34.3" width="3.2" height="10.4" rx="1.6" fill="#34d399" opacity="0.55"></rect>
  <rect x="53.5" y="32.5" width="7" height="14" rx="3.5" fill="url(#fl-ear)" stroke="#047857" stroke-opacity="0.65" stroke-width="1.1"></rect>
  <rect x="55.4" y="34.3" width="3.2" height="10.4" rx="1.6" fill="#34d399" opacity="0.55"></rect>

  
  <rect x="10" y="18" width="44" height="40" rx="13.5" ry="13.5" fill="url(#fl-head)" stroke="#047857" stroke-width="1.6" stroke-linejoin="round"></rect>
  <g clip-path="url(#fl-clip)">
    <rect x="10" y="18" width="44" height="40" fill="url(#fl-sheen)"></rect>
    <rect x="10" y="18" width="44" height="40" fill="url(#fl-shade)"></rect>
  </g>

  
  <circle cx="24.5" cy="35" r="5" fill="#ffffff" stroke="#047857" stroke-opacity="0.45" stroke-width="0.7"></circle>
  <circle cx="39.5" cy="35" r="5" fill="#ffffff" stroke="#047857" stroke-opacity="0.45" stroke-width="0.7"></circle>
  <circle cx="25.1" cy="34.3" r="2.25" fill="#0a0d0c"></circle>
  <circle cx="40.1" cy="34.3" r="2.25" fill="#0a0d0c"></circle>
  <circle cx="25.8" cy="33.6" r="0.75" fill="#ffffff"></circle>
  <circle cx="40.8" cy="33.6" r="0.75" fill="#ffffff"></circle>

  
  <path d="M 27.5 45.5 Q 32 49.2 36.5 45.5" fill="none" stroke="#ffffff" stroke-width="1.7" stroke-linecap="round" stroke-linejoin="round"></path>
</svg>