<svg xmlns="http://www.w3.org/2000/svg" width="512" height="512" viewBox="0 0 512 512" role="img" aria-label="СММ АЙБРО favicon — robot head with emerald dot — light">
  <defs>
    <linearGradient id="em" x1="314" y1="102" x2="402" y2="190" gradientUnits="userSpaceOnUse">
      <stop offset="0" stop-color="#34d399"></stop>
      <stop offset="0.55" stop-color="#10b981"></stop>
      <stop offset="1" stop-color="#059669"></stop>
    </linearGradient>
    <radialGradient id="dotShine" cx="344" cy="130" r="36" gradientUnits="userSpaceOnUse">
      <stop offset="0" stop-color="#ffffff" stop-opacity="0.55"></stop>
      <stop offset="0.6" stop-color="#ffffff" stop-opacity="0.05"></stop>
      <stop offset="1" stop-color="#ffffff" stop-opacity="0"></stop>
    </radialGradient>
    <clipPath id="cl"><rect x="0" y="0" width="512" height="512" rx="112" ry="112"></rect></clipPath>
  </defs>
  <g clip-path="url(#cl)">
    <rect width="512" height="512" fill="#fafaf6"></rect>

    
    <g transform="translate(56 56) scale(0.40)" opacity="0.10">
      <path fill="#0a0a0a" fill-rule="evenodd" d="M508.211 878.328c-75.007 0-109.864-10.95-170.453-54.75-38.325 49.275-159.686 87.783-164.979 21.9 0-49.456-10.95-91.248-23.36-136.873-14.782-56.21-31.572-118.807-31.572-209.508 0-216.626 177.754-379.597 388.357-379.597 210.785 0 375.947 171.001 375.947 381.604.707 207.346-166.595 376.118-373.94 377.224m3.103-571.585c-102.564-5.292-182.499 65.7-200.201 177.024-14.6 92.162 11.315 204.398 33.397 210.238 10.585 2.555 37.23-18.98 53.837-35.587a189.8 189.8 0 0 0 92.71 33.032c106.273 5.112 197.08-75.794 204.215-181.95 4.154-106.382-77.67-196.486-183.958-202.574Z" clip-rule="evenodd"></path>
    </g>

    

    
    <line x1="304" y1="206" x2="346" y2="158" stroke="#0e0f12" stroke-width="20" stroke-linecap="round"></line>

    
    <circle cx="358" cy="146" r="44" fill="url(#em)"></circle>
    <circle cx="358" cy="146" r="44" fill="url(#dotShine)"></circle>
    <circle cx="358" cy="146" r="44" fill="none" stroke="#047857" stroke-opacity="0.40" stroke-width="3"></circle>

    
    <rect x="120" y="200" width="272" height="232" rx="56" ry="56" fill="#0e0f12"></rect>

    
    <circle cx="198" cy="312" r="26" fill="#fafaf6"></circle>
    <circle cx="314" cy="312" r="26" fill="#fafaf6"></circle>

    
    <rect x="216" y="376" width="80" height="16" rx="8" ry="8" fill="#fafaf6"></rect>
  </g>
  <rect x="5" y="5" width="502" height="502" rx="107" ry="107" fill="none" stroke="#2a2a2a" stroke-opacity="0.22" stroke-width="10"></rect>
</svg>