<svg xmlns="http://www.w3.org/2000/svg" width="512" height="512" viewBox="0 0 512 512" role="img" aria-label="MAX logo icon in dark theme">
  <defs>
    <linearGradient id="bgBase" x1="0" y1="0" x2="1" y2="1">
      <stop offset="0" stop-color="#06080a"/>
      <stop offset="0.58" stop-color="#090909"/>
      <stop offset="1" stop-color="#13110f"/>
    </linearGradient>

    <pattern id="vStripe" width="6" height="6" patternUnits="userSpaceOnUse">
      <rect width="3" height="6" fill="#0c0f13" fill-opacity="0.46"/>
      <rect x="3" width="3" height="6" fill="#17191d" fill-opacity="0.16"/>
    </pattern>

    <radialGradient id="goldGlow" cx="0.84" cy="0.14" r="0.7">
      <stop offset="0" stop-color="#caa446" stop-opacity="0.30"/>
      <stop offset="0.30" stop-color="#8e6d26" stop-opacity="0.14"/>
      <stop offset="0.62" stop-color="#4d3a10" stop-opacity="0.05"/>
      <stop offset="1" stop-color="#000000" stop-opacity="0"/>
    </radialGradient>

    <linearGradient id="topSoftLight" x1="0" y1="0" x2="0" y2="1">
      <stop offset="0" stop-color="#ffffff" stop-opacity="0.10"/>
      <stop offset="0.14" stop-color="#ffffff" stop-opacity="0.02"/>
      <stop offset="0.24" stop-color="#ffffff" stop-opacity="0"/>
    </linearGradient>

    <linearGradient id="bottomShade" x1="0" y1="0.72" x2="0" y2="1">
      <stop offset="0" stop-color="#000000" stop-opacity="0"/>
      <stop offset="1" stop-color="#000000" stop-opacity="0.28"/>
    </linearGradient>

    <linearGradient id="logoFill" x1="0" y1="0" x2="1" y2="1">
      <stop offset="0" stop-color="#f7f2e8"/>
      <stop offset="1" stop-color="#efe9db"/>
    </linearGradient>

    <clipPath id="clip">
      <rect x="4" y="4" width="504" height="504" rx="108" ry="108"/>
    </clipPath>
  </defs>

  <g clip-path="url(#clip)">
    <rect width="512" height="512" fill="#050608"/>
    <rect width="512" height="512" fill="url(#bgBase)"/>
    <rect width="512" height="512" fill="url(#vStripe)" opacity="0.95"/>
    <rect width="512" height="512" fill="url(#goldGlow)"/>
    <rect width="512" height="512" fill="url(#bottomShade)"/>
    <rect width="512" height="512" fill="url(#topSoftLight)"/>
  </g>

  <rect x="5" y="5" width="502" height="502" rx="107" ry="107" fill="none" stroke="#5f6062" stroke-opacity="0.60" stroke-width="10"/>

  <g transform="translate(61 61) scale(0.39)">
    <path fill="url(#logoFill)" fill-rule="evenodd" d="M508.211 878.328c-75.007 0-109.864-10.95-170.453-54.75-38.325 49.275-159.686 87.783-164.979 21.9 0-49.456-10.95-91.248-23.36-136.873-14.782-56.21-31.572-118.807-31.572-209.508 0-216.626 177.754-379.597 388.357-379.597 210.785 0 375.947 171.001 375.947 381.604.707 207.346-166.595 376.118-373.94 377.224m3.103-571.585c-102.564-5.292-182.499 65.7-200.201 177.024-14.6 92.162 11.315 204.398 33.397 210.238 10.585 2.555 37.23-18.98 53.837-35.587a189.8 189.8 0 0 0 92.71 33.032c106.273 5.112 197.08-75.794 204.215-181.95 4.154-106.382-77.67-196.486-183.958-202.574Z" clip-rule="evenodd"/>
  </g>
</svg>
