<svg xmlns="http://www.w3.org/2000/svg" viewBox="0 0 192 192" role="img" aria-label="СММ АЙБРО — friendly host avatar for community chat">
  <defs>
    <linearGradient id="h-cream" x1="0.22" y1="0.06" x2="0.86" y2="0.96">
      <stop offset="0" stop-color="#fdf8ec"></stop>
      <stop offset="0.55" stop-color="#f6ecd2"></stop>
      <stop offset="1" stop-color="#ead8b1"></stop>
    </linearGradient>
    <radialGradient id="h-sheen" cx="0.32" cy="0.18" r="0.58">
      <stop offset="0" stop-color="#ffffff" stop-opacity="0.70"></stop>
      <stop offset="0.55" stop-color="#ffffff" stop-opacity="0.06"></stop>
      <stop offset="1" stop-color="#ffffff" stop-opacity="0"></stop>
    </radialGradient>
    <radialGradient id="h-shade" cx="0.82" cy="0.92" r="0.72">
      <stop offset="0" stop-color="#7a5a25" stop-opacity="0.22"></stop>
      <stop offset="1" stop-color="#7a5a25" stop-opacity="0"></stop>
    </radialGradient>
    <linearGradient id="h-bubble" x1="0.15" y1="0.10" x2="0.85" y2="0.95">
      <stop offset="0" stop-color="#34d399"></stop>
      <stop offset="0.60" stop-color="#10b981"></stop>
      <stop offset="1" stop-color="#059669"></stop>
    </linearGradient>
    <linearGradient id="h-ant" x1="0.20" y1="0.10" x2="0.80" y2="0.95">
      <stop offset="0" stop-color="#6ee7b7"></stop>
      <stop offset="0.55" stop-color="#10b981"></stop>
      <stop offset="1" stop-color="#047857"></stop>
    </linearGradient>
    <linearGradient id="h-buddy" x1="0" y1="0" x2="0" y2="1">
      <stop offset="0" stop-color="#34d399"></stop>
      <stop offset="1" stop-color="#059669"></stop>
    </linearGradient>
    <clipPath id="h-clip">
      <rect x="30" y="44" width="132" height="128" rx="58" ry="58"></rect>
    </clipPath>
  </defs>

  
  <g opacity="0.55">
    <circle cx="22" cy="158" r="13" fill="url(#h-buddy)"></circle>
    <circle cx="170" cy="158" r="13" fill="url(#h-buddy)"></circle>
  </g>

  
  <line x1="96" y1="46" x2="96" y2="28" stroke="#047857" stroke-width="4.5" stroke-linecap="round"></line>
  <circle cx="96" cy="22" r="7" fill="url(#h-ant)" stroke="#047857" stroke-opacity="0.55" stroke-width="1.3"></circle>
  <circle cx="93.8" cy="19.6" r="2" fill="#ffffff" fill-opacity="0.80"></circle>

  
  <g transform="rotate(-7 32 100)">
    <ellipse cx="32" cy="100" rx="19" ry="32" fill="url(#h-cream)" stroke="#10b981" stroke-width="4.5"></ellipse>
    <ellipse cx="32" cy="100" rx="10.5" ry="21" fill="#10b981" fill-opacity="0.20"></ellipse>
    <ellipse cx="32" cy="100" rx="5.5" ry="13" fill="#047857" fill-opacity="0.32"></ellipse>
  </g>

  
  <g transform="rotate(7 160 100)">
    <ellipse cx="160" cy="100" rx="19" ry="32" fill="url(#h-cream)" stroke="#10b981" stroke-width="4.5"></ellipse>
    <ellipse cx="160" cy="100" rx="10.5" ry="21" fill="#10b981" fill-opacity="0.20"></ellipse>
    <ellipse cx="160" cy="100" rx="5.5" ry="13" fill="#047857" fill-opacity="0.32"></ellipse>
  </g>

  
  <rect x="30" y="44" width="132" height="128" rx="58" ry="58" fill="url(#h-cream)" stroke="#b6904c" stroke-opacity="0.45" stroke-width="2.2" stroke-linejoin="round"></rect>

  
  <g clip-path="url(#h-clip)">
    <rect x="30" y="44" width="132" height="128" fill="url(#h-sheen)"></rect>
    <rect x="30" y="44" width="132" height="128" fill="url(#h-shade)"></rect>
  </g>

  
  <rect x="42" y="74" width="108" height="86" rx="42" ry="42" fill="none" stroke="#b6904c" stroke-opacity="0.14" stroke-width="1.4"></rect>

  
  <ellipse cx="60" cy="132" rx="11" ry="6.5" fill="#f4a48f" opacity="0.55"></ellipse>
  <ellipse cx="132" cy="132" rx="11" ry="6.5" fill="#f4a48f" opacity="0.55"></ellipse>

  
  <g>
    <ellipse cx="76" cy="108" rx="8.5" ry="9.5" fill="#231a10"></ellipse>
    <ellipse cx="116" cy="108" rx="8.5" ry="9.5" fill="#231a10"></ellipse>
    <circle cx="78.8" cy="105.2" r="3.0" fill="#ffffff"></circle>
    <circle cx="118.8" cy="105.2" r="3.0" fill="#ffffff"></circle>
    <circle cx="73.4" cy="111.5" r="1.4" fill="#ffffff" fill-opacity="0.55"></circle>
    <circle cx="113.4" cy="111.5" r="1.4" fill="#ffffff" fill-opacity="0.55"></circle>
  </g>

  
  <path d="M 82 140 Q 96 154 110 140" fill="none" stroke="#3d2a14" stroke-width="3.6" stroke-linecap="round" stroke-linejoin="round"></path>

  
  <g>
    <rect x="134" y="14" width="52" height="36" rx="13" ry="13" fill="url(#h-bubble)" stroke="#047857" stroke-opacity="0.45" stroke-width="1.4"></rect>
    <path d="M 150 50 L 144 62 L 159 49 Z" fill="url(#h-bubble)" stroke="#047857" stroke-opacity="0.45" stroke-width="1.4" stroke-linejoin="round"></path>
    
    <path d="M 138 22 Q 144 18 154 18" fill="none" stroke="#ffffff" stroke-opacity="0.45" stroke-width="2" stroke-linecap="round"></path>
    
    <circle cx="149" cy="32" r="2.6" fill="#ffffff"></circle>
    <circle cx="160" cy="32" r="2.6" fill="#ffffff"></circle>
    <circle cx="171" cy="32" r="2.6" fill="#ffffff"></circle>
  </g>
</svg>